<?xml version="1.0" encoding="UTF-8" standalone="no"?>
<svg width="95px" height="95px" viewBox="0 0 95 95" version="1.1" xmlns="http://www.w3.org/2000/svg" xmlns:xlink="http://www.w3.org/1999/xlink" xmlns:sketch="http://www.bohemiancoding.com/sketch/ns">
    <!-- Generator: Sketch 3.4 (15575) - http://www.bohemiancoding.com/sketch -->
    <title>javascript</title>
    <desc>Created with Sketch.</desc>
    <defs></defs>
    <g id="Page-1" stroke="none" stroke-width="1" fill="none" fill-rule="evenodd" sketch:type="MSPage">
        <g id="webpage" sketch:type="MSArtboardGroup" transform="translate(-195.000000, -475.000000)">
            <g id="javascript" sketch:type="MSLayerGroup" transform="translate(195.000000, 475.000000)">
                <circle id="badge" fill="#636363" sketch:type="MSShapeGroup" cx="47.5" cy="47.5" r="47.5"></circle>
                <g id="icon" transform="translate(20.000000, 29.000000)" fill="#FFFFFF" sketch:type="MSShapeGroup">
                    <path d="M0.740095238,30.8632028 L6.89292857,27.1783855 C8.07994524,29.2610603 9.1597619,31.0231171 11.7497905,31.0231171 C14.2324595,31.0231171 15.7977071,30.0620842 15.7977071,26.323878 L15.7977071,0.901764881 L23.3532333,0.901764881 L23.3532333,26.4296456 C23.3532333,34.1737289 18.7661262,37.6986318 12.0736238,37.6986318 C6.02942619,37.6986318 2.52101905,34.6009038 0.740095238,30.8625713" id="j"></path>
                    <path d="M27.4571429,30.0620526 L33.6091786,26.5371497 C35.2286643,29.1543455 37.3334214,31.076948 41.0571857,31.076948 C44.1878405,31.076948 46.1841214,29.5280367 46.1841214,27.3916572 C46.1841214,24.8281345 44.1334429,23.9201117 40.6792738,22.4251576 L38.790831,21.6235339 C33.3395833,19.3274296 29.7234976,16.4434468 29.7234976,10.3550212 C29.7234976,4.74728571 34.0410095,0.474432168 40.787431,0.474432168 C45.5906929,0.474432168 49.0447024,2.13024777 51.5270524,6.45630084 L45.6442929,10.1946333 C44.3489595,7.89837116 42.9461071,6.9905062 40.787431,6.9905062 C38.5746762,6.9905062 37.1713452,8.37906126 37.1713452,10.1946333 C37.1713452,12.4378538 38.5746762,13.3458766 41.812531,14.7345895 L43.7012929,15.5355818 C50.1237214,18.2594924 53.7398071,21.0364447 53.7398071,27.2847846 C53.7398071,34.0144461 48.3968762,37.6992633 41.2191024,37.6992633 C34.2030857,37.6992633 29.6695786,34.3882635 27.4571429,30.0620526" id="s"></path>
                </g>
            </g>
        </g>
    </g>
</svg>