<?xml version="1.0" encoding="UTF-8" standalone="no"?>
<svg width="96px" height="96px" viewBox="0 0 96 96" version="1.1" xmlns="http://www.w3.org/2000/svg" xmlns:xlink="http://www.w3.org/1999/xlink" xmlns:sketch="http://www.bohemiancoding.com/sketch/ns">
    <!-- Generator: Sketch 3.4 (15575) - http://www.bohemiancoding.com/sketch -->
    <title>node</title>
    <desc>Created with Sketch.</desc>
    <defs></defs>
    <g id="Page-1" stroke="none" stroke-width="1" fill="none" fill-rule="evenodd" sketch:type="MSPage">
        <g id="webpage" sketch:type="MSArtboardGroup" transform="translate(-195.000000, -910.000000)">
            <g id="node" sketch:type="MSLayerGroup" transform="translate(195.000000, 910.000000)">
                <ellipse id="badge" fill="#9EB01A" sketch:type="MSShapeGroup" cx="47.7416691" cy="47.5804016" rx="47.5" ry="47.5"></ellipse>
                <path d="M47.735676,79.4250521 C46.8766681,79.4250521 46.0236532,79.2027838 45.2725207,78.7701544 L37.4275809,74.1600712 C36.2569329,73.5091426 36.828273,73.2789361 37.2138277,73.1439875 C38.7780212,72.6061775 39.0936567,72.4811516 40.7617302,71.5424648 C40.9355295,71.4452224 41.1652642,71.4809441 41.3450566,71.5861247 L47.3700982,75.1404333 C47.5898444,75.2614901 47.8974891,75.2614901 48.0992561,75.1404333 L71.592124,61.6693853 C71.8118702,61.5443594 71.9517087,61.296292 71.9517087,61.038302 L71.9517087,34.1021597 C71.9517087,33.8402006 71.8118702,33.5921332 71.5881286,33.4591692 L48.1032515,20.0000284 C47.8855029,19.8730179 47.5978352,19.8730179 47.378089,20.0000284 L23.8992049,33.4631382 C23.6714679,33.5921332 23.527634,33.8461542 23.527634,34.1021597 L23.527634,61.038302 C23.527634,61.296292 23.6714679,61.5384058 23.8972072,61.6614472 L30.3337736,65.3546735 C33.8257407,67.0891602 35.9652697,65.04707 35.9652697,62.9950571 L35.9652697,36.4002554 C35.9652697,36.0251776 36.268919,35.7294813 36.646483,35.7294813 L39.6270407,35.7294813 C39.9986116,35.7294813 40.3062563,36.0251776 40.3062563,36.4002554 L40.3062563,62.9950571 C40.3062563,67.6249856 37.7691864,70.2802983 33.3502898,70.2802983 C31.9918586,70.2802983 30.9230929,70.2802983 27.9385398,68.8196779 L21.7776551,65.2951373 C20.2554131,64.4219403 19.3144998,62.7866805 19.3144998,61.038302 L19.3144998,34.1021597 C19.3144998,32.3537812 20.2554131,30.7185214 21.7776551,29.8492935 L45.2725207,16.3623692 C46.7588042,15.5268784 48.7345224,15.5268784 50.2088197,16.3623692 L73.7016877,29.8492935 C75.2239296,30.7224904 76.1688383,32.3537812 76.1688383,34.1021597 L76.1688383,61.038302 C76.1688383,62.7866805 75.2239296,64.4159867 73.7016877,65.2951373 L50.2088197,78.7701544 C49.4576872,79.2027838 48.6066701,79.4250521 47.735676,79.4250521 Z M54.9932941,60.8696163 C44.711169,60.8696163 42.5576561,56.1801515 42.5576561,52.2487806 C42.5576561,51.8737028 42.8613054,51.576022 43.2368717,51.576022 L46.2753625,51.576022 C46.6149703,51.576022 46.896645,51.8181357 46.9505827,52.1475691 C47.4080544,55.2196349 48.776474,56.7695595 54.9932941,56.7695595 C59.9415793,56.7695595 62.0491453,55.6582179 62.0491453,53.0485496 C62.0491453,51.5442694 61.4518351,50.4289587 53.7607176,49.6807876 C47.332142,49.0497044 43.3567333,47.6386974 43.3567333,42.5285105 C43.3567333,37.8192005 47.352119,35.0110783 54.0503831,35.0110783 C61.5776898,35.0110783 65.3013892,37.6068548 65.7728447,43.1754701 C65.790824,43.3659858 65.7229024,43.5505479 65.5950501,43.6934347 C65.4652,43.8283833 65.2854077,43.9097494 65.0976246,43.9097494 L62.0471476,43.9097494 C61.7315121,43.9097494 61.4518351,43.6854965 61.3879089,43.3818621 C60.6567533,40.1490488 58.876809,39.1170887 54.0503831,39.1170887 C48.6466239,39.1170887 48.0193484,40.9865241 48.0193484,42.3876083 C48.0193484,44.0863733 48.7604924,44.5805235 56.0560667,45.5390556 C63.2757287,46.487665 66.7057673,47.8292131 66.7057673,52.8699412 C66.7057673,57.9563136 62.4366977,60.8696163 54.9932941,60.8696163 Z" id="icon" fill="#FFFFFF" sketch:type="MSShapeGroup"></path>
            </g>
        </g>
    </g>
</svg>