<?xml version="1.0" encoding="UTF-8" standalone="no"?>
<svg width="95px" height="95px" viewBox="0 0 95 95" version="1.1" xmlns="http://www.w3.org/2000/svg" xmlns:xlink="http://www.w3.org/1999/xlink" xmlns:sketch="http://www.bohemiancoding.com/sketch/ns">
    <!-- Generator: Sketch 3.4 (15575) - http://www.bohemiancoding.com/sketch -->
    <title>react</title>
    <desc>Created with Sketch.</desc>
    <defs></defs>
    <g id="Page-1" stroke="none" stroke-width="1" fill="none" fill-rule="evenodd" sketch:type="MSPage">
        <g id="webpage" sketch:type="MSArtboardGroup" transform="translate(-195.000000, -620.000000)">
            <g id="react" sketch:type="MSLayerGroup" transform="translate(195.000000, 620.000000)">
                <circle id="badge" fill="#3DB0CC" sketch:type="MSShapeGroup" cx="47.5" cy="47.5" r="47.5"></circle>
                <g id="icon" transform="translate(13.000000, 17.000000)" sketch:type="MSShapeGroup">
                    <ellipse id="Oval" fill="#FFFFFF" cx="34.331425" cy="30.6229202" rx="6.39005301" ry="6.46497904"></ellipse>
                    <path d="M34.331425,17.4782661 C42.9109376,17.4782661 50.8810853,18.7237865 56.8905399,20.8168794 C64.13108,23.3387199 68.5828581,27.1614946 68.5828581,30.6229202 C68.5828581,34.2300968 63.8647375,38.2910217 56.0894746,40.8974004 C50.2109621,42.8679387 42.4756951,43.8964435 34.331425,43.8964435 C25.9814432,43.8964435 18.0744739,42.9309557 12.1311272,40.8756215 C4.61010602,38.2747842 0.0799918929,34.1611518 0.0799918929,30.6229202 C0.0799918929,27.1895881 4.33051652,23.3964533 11.4692835,20.87835 C17.5011562,18.7508491 25.6680992,17.4782661 34.331425,17.4782661 L34.331425,17.4782661 Z" id="Shape" stroke="#FFFFFF" stroke-width="3.072"></path>
                    <path d="M23.0213611,24.0884807 C27.3074235,16.5692231 32.3555743,10.2061796 37.1498655,5.98494142 C42.9263501,0.898991244 48.4234999,-1.09293933 51.387276,0.636227032 C54.4758802,2.43820446 55.5960214,8.60214515 53.9433227,16.7185824 C52.6937678,22.855074 49.7101211,30.1482951 45.6414889,37.2862289 C41.4700645,44.6044506 36.6933512,51.0519034 31.9642764,55.2340942 C25.9800421,60.5264928 20.1947686,62.4416173 17.1651393,60.674048 C14.2254372,58.9587995 13.1010926,53.3386866 14.5113955,45.8240683 C15.7029945,39.4746849 18.6933921,31.6813226 23.0213611,24.0884807 L23.0213611,24.0884807 Z" id="Shape" stroke="#FFFFFF" stroke-width="3.072"></path>
                    <path d="M23.032188,37.3053015 C18.7337701,29.7932606 15.8060414,22.1906246 14.5856555,15.8801597 C13.1152313,8.27700826 14.1548711,2.46372056 17.1158449,0.729528302 C20.2013921,-1.07773277 26.0391444,1.01871069 32.1640013,6.52090825 C36.7948696,10.6808047 41.5500564,16.9383044 45.6305346,24.0694081 C49.8140596,31.380542 52.9496654,38.7874257 54.169287,45.0212135 C55.7126975,52.9096812 54.4633974,58.9370206 51.4366977,60.7097447 C48.4997979,62.4298902 43.1255656,60.6087113 37.3949362,55.6195419 C32.5530065,51.4041028 27.3727672,44.8907979 23.032188,37.3053015 L23.032188,37.3053015 Z" id="Shape" stroke="#FFFFFF" stroke-width="3.072"></path>
                </g>
            </g>
        </g>
    </g>
</svg>